<svg xmlns="http://www.w3.org/2000/svg" width="1000" height="1000"  stroke="#000" stroke-linecap="round" stroke-linejoin="round" fill="#fff" fill-rule="evenodd"><g stroke="#54c5f8" stroke-width="15.9084"><path d="M698.3085 838.2307c106.5962-156.1205-40.2767-396.3718-51.1113-415.1331-62.0933-107.5244 10.6558 17.5762-63.0703-109.6142-35.1369 20.9227-15.3815 11.3649-65.5067 38.3336 7.7471 23.4783 261.1347 320.4809 105.5596 430.647-52.488 37.1665-223.2703 55.6652-178.0614-146.8415 0 0-183.2092 110.1451 9.6962 299.8629-25.4711-52.2536-23.5038-63.5312-23.5038-63.5312 83.5671 70.4813 223.5725 28.4253 266.0057-33.7181l-.008-.0039z" fill="#54c5f8" fill-rule="nonzero"/><path d="M643.2897 553.9932l73.3471 40.4977c23.8102 78.3936 31.9095 170.1619-18.3278 243.7386l.008.0039c-42.4334 62.1433-182.4382 104.1994-266.0056 33.7181 0 0-1.9674 11.2776 23.5038 63.5312-192.9061-189.7166-9.6961-299.863-9.6961-299.863-45.2079 202.507 125.5737 184.0084 178.0613 146.8416 63.8071-45.1832 55.6144-136.2282 19.1093-228.469z" fill="#01579b"/></g><path d="M496.1558 332.132l36.9199 53.4538 221.3445-132.0072-54.4506-26.2594L503.0594 342.127m-60.2803-94.8403l49.4275 71.5629L788.537 142.121l-69.1856-34.16-267.3301 152.7066" fill="#54c5f8" stroke="none"/><g fill-rule="nonzero"><path d="M191.1849 595.0981c-.0023 7.0939-5.7539 12.8433-12.8478 12.8433H75.5868c-7.1025-.0588-12.8478-5.6232-12.8478-12.8478V492.3432a12.849 12.849 0 0 1 3.7666-9.0834c2.4098-2.4085 5.6783-3.7612 9.0857-3.7598h102.7458c7.0934 0 12.6442 5.5643 12.6442 12.8478v102.7549z" stroke="none" fill="#ff5c3e"/><path d="M163.3859 535.0575h-27.3151V507.747h-18.2085v27.3105H90.5608v18.204h27.3105v27.3106h18.1995v-27.3513h27.3105z" stroke="none"/><path d="M545.2085 547.6927l-6.813-1.4748c-4.4605-1.0631-7.8353-2.4519-7.8353-5.7679 0-3.9222 5.3156-4.6234 8.143-4.6234 4.3564 0 8.3058 1.4295 9.1608 6.0167h10.3732c-1.2215-10.0249-9.5996-13.8656-18.8419-13.8656-8.1429 0-18.8373 3.0536-18.8373 12.9066-.0018 2.4976.6917 4.9459 2.004 7.0707 2.6465 3.7232 7.4463 5.1572 12.314 6.3018 7.2382 1.719 14.603 2.2891 14.603 7.5096.2579 5.1436-6.3334 5.881-10.0294 5.881-5.3201 0-9.6811-2.09-10.2013-7.8444h-9.9434c.1809 10.5949 8.5953 15.7431 20.0407 15.6978 9.3327 0 20.1492-3.9222 20.1492-14.6573.2262-8.8939-6.9758-11.468-14.422-13.187m-292.0965-35.6797h-11.5992l-23.8995 62.2709h11.2508l5.8494-16.4804h24.8541l5.8448 16.4804h11.6851l-12.2506-31.8027zm-15.4399 37.548l3.8679-10.9929 5.5508-15.8336h.2623l9.3328 26.7722h-18.9641zm75.6208-14.4763h-.1719c-3.0536-4.9763-9.3327-7.0663-15.0057-7.0663-8.3329 0-16.5211 5.1391-18.8554 16.6026-.4596 2.2646-.689 4.57-.6831 6.8808 0 13.4584 6.8763 24.0533 21.1898 24.0669 5.6729 0 11.3413-2.1805 13.9561-7.3287h.1809v6.1072h9.4187v-62.2935h-10.0294v23.0717zm.3483 16.6568c0 7.8534-3.7548 15.9602-12.6487 15.9602-8.6315 0-12.4677-7.6725-12.4677-15.4354 0-2.1715.2443-4.3429.769-6.3696 1.4386-5.5643 5.0351-10.0249 11.8752-10.0249 6.8129 0 11.4544 4.5827 12.3139 12.599.0905.9952.0679 2.1352.0679 3.2798m53.0331-16.6614h-.1809c-3.0536-4.9762-9.3327-7.0663-15.0011-7.0663-9.577 0-19.0002 6.7768-19.4888 22.0493l-.0452 1.3436c0 13.4585 6.8762 24.0534 21.1897 24.0669 5.6684 0 11.3323-2.1805 13.9561-7.3286h.181v6.1072h9.4232V512.022h-10.0294zm.3348 17.1726c-.1583 7.6905-3.9267 15.4444-12.6668 15.4444-8.5953 0-12.4723-7.6724-12.4723-15.4354l.0317-1.3571c.3709-7.6906 3.8181-14.9921 12.6668-14.9921 7.6725 0 12.5989 6.0167 12.5989 15.743-.1357.4524-.2533.4524-.2533.6967M392.1709 521.4h19.7602v52.9291h10.8799V521.4h19.7557v-9.5001h-50.3551zm82.0492 6.6275c-5.881 0-11.0744 3.0536-13.5173 7.1476h-.1809v-23.0716h-9.9525v62.2709h9.9434v-26.6003c0-6.6275 4.2705-11.8616 10.8573-11.8616 5.8448 0 8.5953 3.1486 8.8758 10.1154v28.3465h9.9525v-30.9613c-.0724-10.2375-6.1661-15.3902-15.9059-15.3902m26.9169-16.037h10.0204v9.5001h-10.0204zm0 38.0908v24.3384h10.0204v-45.2386h-10.0204z" stroke="none" fill="#323232"/></g></svg>